<svg xmlns="http://www.w3.org/2000/svg" xmlns:xlink="http://www.w3.org/1999/xlink" width="500" zoomAndPan="magnify" viewBox="0 0 375 374.999991" height="500" preserveAspectRatio="xMidYMid meet" version="1.0"><defs><clipPath id="id1"><path d="M 30.585938 105.734375 L 215.835938 105.734375 L 215.835938 290.984375 L 30.585938 290.984375 Z M 30.585938 105.734375 " clip-rule="nonzero"/></clipPath><clipPath id="id2"><path d="M 117.457031 22.507812 L 349.957031 22.507812 L 349.957031 291 L 117.457031 291 Z M 117.457031 22.507812 " clip-rule="nonzero"/></clipPath></defs><g clip-path="url(#id1)"><path fill="rgb(0%, 76.078796%, 79.60968%)" d="M 123.210938 284.8125 C 75.535156 284.8125 36.761719 246.035156 36.761719 198.359375 C 36.761719 150.683594 75.535156 111.910156 123.210938 111.910156 C 170.886719 111.910156 209.660156 150.683594 209.660156 198.359375 C 209.660156 246.035156 170.886719 284.8125 123.210938 284.8125 Z M 123.210938 105.734375 C 72.132812 105.734375 30.585938 147.285156 30.585938 198.359375 C 30.585938 249.4375 72.132812 290.984375 123.210938 290.984375 C 174.285156 290.984375 215.835938 249.4375 215.835938 198.359375 C 215.835938 147.285156 174.285156 105.734375 123.210938 105.734375 " fill-opacity="1" fill-rule="nonzero"/></g><path fill="rgb(0%, 76.078796%, 79.60968%)" d="M 126.296875 252.910156 L 126.296875 225.714844 L 158.257812 212.011719 Z M 88.136719 212 L 120.121094 225.714844 L 120.121094 253.128906 Z M 161.140625 204.066406 L 123.160156 220.300781 L 85.28125 204.066406 C 83.289062 203.210938 81.046875 203.789062 79.71875 205.5 C 78.394531 207.226562 78.394531 209.527344 79.730469 211.253906 L 118.242188 260.773438 C 119.449219 262.316406 121.257812 263.199219 123.210938 263.199219 C 125.164062 263.199219 126.972656 262.316406 128.179688 260.773438 L 166.6875 211.253906 C 168.027344 209.527344 168.027344 207.226562 166.699219 205.5 C 165.375 203.789062 163.128906 203.210938 161.140625 204.066406 " fill-opacity="1" fill-rule="nonzero"/><path fill="rgb(0%, 76.078796%, 79.60968%)" d="M 120.121094 143.773438 L 120.121094 173.660156 L 87.777344 185.226562 Z M 126.296875 173.660156 L 126.296875 143.617188 L 158.621094 185.214844 Z M 126.296875 180.210938 L 159.136719 191.957031 L 126.296875 205.996094 Z M 120.121094 206.019531 L 87.414062 191.910156 L 120.121094 180.210938 Z M 167.507812 186.542969 L 128.144531 135.933594 C 125.765625 132.871094 120.652344 132.871094 118.277344 135.933594 L 78.910156 186.542969 C 77.707031 188.097656 77.296875 190.0625 77.789062 191.957031 C 78.285156 193.851562 79.585938 195.371094 81.382812 196.140625 L 120.738281 213.003906 C 121.523438 213.351562 122.367188 213.519531 123.210938 213.519531 C 124.054688 213.519531 124.886719 213.351562 125.671875 213.015625 L 165.035156 196.140625 C 166.832031 195.371094 168.136719 193.851562 168.628906 191.957031 C 169.125 190.0625 168.714844 188.097656 167.507812 186.542969 " fill-opacity="1" fill-rule="nonzero"/><path fill="rgb(0%, 76.078796%, 79.60968%)" d="M 117.289062 124.503906 C 121.171875 124.175781 125.25 124.175781 129.132812 124.503906 C 129.226562 124.503906 129.300781 124.503906 129.386719 124.503906 C 130.988281 124.503906 132.339844 123.285156 132.460938 121.667969 C 132.59375 119.96875 131.328125 118.472656 129.636719 118.339844 C 125.417969 118 121.003906 118 116.78125 118.339844 C 115.09375 118.472656 113.828125 119.96875 113.960938 121.667969 C 114.09375 123.367188 115.550781 124.585938 117.289062 124.503906 " fill-opacity="1" fill-rule="nonzero"/><path fill="rgb(0%, 76.078796%, 79.60968%)" d="M 79.394531 137.902344 C 79.996094 137.902344 80.613281 137.71875 81.144531 137.359375 C 82.785156 136.238281 84.472656 135.164062 86.160156 134.1875 C 87.871094 133.199219 89.644531 132.269531 91.417969 131.425781 C 92.949219 130.703125 93.601562 128.855469 92.878906 127.3125 C 92.140625 125.769531 90.308594 125.128906 88.765625 125.851562 C 86.847656 126.757812 84.929688 127.769531 83.074219 128.84375 C 81.238281 129.894531 79.417969 131.050781 77.632812 132.269531 C 76.234375 133.234375 75.882812 135.164062 76.847656 136.5625 C 77.441406 137.429688 78.40625 137.902344 79.394531 137.902344 " fill-opacity="1" fill-rule="nonzero"/><path fill="rgb(0%, 76.078796%, 79.60968%)" d="M 57.117188 152.785156 C 55.898438 154.570312 54.742188 156.390625 53.691406 158.222656 C 52.621094 160.082031 51.605469 162 50.703125 163.914062 C 49.964844 165.449219 50.617188 167.292969 52.160156 168.027344 C 52.582031 168.222656 53.042969 168.332031 53.488281 168.332031 C 54.644531 168.332031 55.742188 167.679688 56.273438 166.570312 C 57.117188 164.796875 58.046875 163.023438 59.035156 161.3125 C 60.011719 159.621094 61.074219 157.933594 62.207031 156.292969 C 63.171875 154.882812 62.824219 152.964844 61.410156 152 C 60.011719 151.035156 58.082031 151.386719 57.117188 152.785156 " fill-opacity="1" fill-rule="nonzero"/><path fill="rgb(0%, 76.078796%, 79.60968%)" d="M 46.515625 189.109375 C 44.769531 188.976562 43.320312 190.230469 43.1875 191.933594 C 43.019531 194.042969 42.933594 196.214844 42.933594 198.359375 C 42.933594 200.507812 43.019531 202.679688 43.1875 204.789062 C 43.320312 206.394531 44.671875 207.625 46.265625 207.625 C 46.347656 207.625 46.433594 207.625 46.515625 207.609375 C 48.207031 207.480469 49.484375 205.984375 49.339844 204.28125 C 49.183594 202.339844 49.109375 200.351562 49.109375 198.359375 C 49.109375 196.371094 49.183594 194.382812 49.339844 192.4375 C 49.484375 190.738281 48.207031 189.242188 46.515625 189.109375 " fill-opacity="1" fill-rule="nonzero"/><path fill="rgb(0%, 76.078796%, 79.60968%)" d="M 59.035156 235.410156 C 58.046875 233.699219 57.117188 231.925781 56.273438 230.152344 C 55.539062 228.621094 53.707031 227.96875 52.160156 228.691406 C 50.617188 229.429688 49.964844 231.273438 50.703125 232.804688 C 51.605469 234.722656 52.621094 236.640625 53.691406 238.5 C 54.742188 240.332031 55.898438 242.152344 57.117188 243.9375 C 57.722656 244.792969 58.6875 245.265625 59.664062 245.265625 C 60.265625 245.265625 60.882812 245.09375 61.410156 244.722656 C 62.824219 243.757812 63.171875 241.839844 62.207031 240.429688 C 61.074219 238.789062 60.011719 237.097656 59.035156 235.410156 " fill-opacity="1" fill-rule="nonzero"/><path fill="rgb(0%, 76.078796%, 79.60968%)" d="M 91.417969 265.296875 C 89.644531 264.453125 87.871094 263.523438 86.160156 262.535156 C 84.472656 261.558594 82.785156 260.496094 81.144531 259.363281 C 79.730469 258.398438 77.8125 258.761719 76.847656 260.160156 C 75.882812 261.558594 76.234375 263.488281 77.632812 264.453125 C 79.417969 265.671875 81.238281 266.828125 83.074219 267.878906 C 84.929688 268.953125 86.847656 269.964844 88.765625 270.867188 C 89.1875 271.074219 89.644531 271.171875 90.078125 271.171875 C 91.238281 271.171875 92.347656 270.519531 92.878906 269.410156 C 93.601562 267.867188 92.949219 266.03125 91.417969 265.296875 " fill-opacity="1" fill-rule="nonzero"/><path fill="rgb(0%, 76.078796%, 79.60968%)" d="M 129.132812 272.230469 C 125.25 272.535156 121.171875 272.535156 117.289062 272.230469 C 115.5625 272.125 114.09375 273.367188 113.960938 275.054688 C 113.828125 276.753906 115.09375 278.25 116.78125 278.382812 C 118.890625 278.550781 121.0625 278.636719 123.210938 278.636719 C 125.355469 278.636719 127.527344 278.550781 129.636719 278.382812 C 131.328125 278.25 132.59375 276.753906 132.460938 275.054688 C 132.328125 273.367188 130.894531 272.109375 129.132812 272.230469 " fill-opacity="1" fill-rule="nonzero"/><path fill="rgb(0%, 76.078796%, 79.60968%)" d="M 165.277344 259.363281 C 163.636719 260.496094 161.949219 261.558594 160.261719 262.535156 C 158.546875 263.523438 156.773438 264.453125 155 265.296875 C 153.46875 266.03125 152.820312 267.867188 153.542969 269.410156 C 154.074219 270.519531 155.183594 271.171875 156.339844 271.171875 C 156.773438 271.171875 157.234375 271.074219 157.65625 270.867188 C 159.574219 269.964844 161.492188 268.953125 163.347656 267.878906 C 165.179688 266.828125 167.003906 265.671875 168.785156 264.453125 C 170.1875 263.488281 170.535156 261.558594 169.570312 260.160156 C 168.605469 258.761719 166.6875 258.398438 165.277344 259.363281 " fill-opacity="1" fill-rule="nonzero"/><path fill="rgb(0%, 76.078796%, 79.60968%)" d="M 194.257812 228.691406 C 192.714844 227.96875 190.882812 228.621094 190.144531 230.152344 C 189.300781 231.925781 188.375 233.699219 187.382812 235.410156 C 186.40625 237.097656 185.335938 238.789062 184.210938 240.429688 C 183.246094 241.839844 183.597656 243.757812 185.007812 244.722656 C 185.539062 245.09375 186.152344 245.265625 186.757812 245.265625 C 187.734375 245.265625 188.699219 244.792969 189.300781 243.9375 C 190.519531 242.152344 191.679688 240.332031 192.726562 238.5 C 193.800781 236.640625 194.8125 234.722656 195.71875 232.804688 C 196.453125 231.273438 195.800781 229.429688 194.257812 228.691406 " fill-opacity="1" fill-rule="nonzero"/><path fill="rgb(0%, 76.078796%, 79.60968%)" d="M 199.902344 207.609375 C 199.988281 207.625 200.070312 207.625 200.15625 207.625 C 201.75 207.625 203.097656 206.394531 203.230469 204.789062 C 203.402344 202.679688 203.484375 200.507812 203.484375 198.359375 C 203.484375 196.214844 203.402344 194.042969 203.230469 191.933594 C 203.097656 190.230469 201.675781 188.976562 199.902344 189.109375 C 198.203125 189.242188 196.9375 190.738281 197.070312 192.4375 C 197.226562 194.382812 197.308594 196.371094 197.308594 198.359375 C 197.308594 200.351562 197.226562 202.339844 197.070312 204.28125 C 196.9375 205.984375 198.203125 207.480469 199.902344 207.609375 " fill-opacity="1" fill-rule="nonzero"/><path fill="rgb(0%, 76.078796%, 79.60968%)" d="M 184.210938 156.292969 C 185.335938 157.933594 186.40625 159.621094 187.382812 161.3125 C 188.375 163.023438 189.300781 164.796875 190.144531 166.570312 C 190.675781 167.679688 191.785156 168.332031 192.933594 168.332031 C 193.378906 168.332031 193.824219 168.222656 194.257812 168.027344 C 195.800781 167.292969 196.453125 165.449219 195.71875 163.914062 C 194.8125 162 193.800781 160.082031 192.726562 158.222656 C 191.679688 156.390625 190.519531 154.570312 189.300781 152.785156 C 188.335938 151.386719 186.417969 151.035156 185.007812 152 C 183.597656 152.964844 183.246094 154.882812 184.210938 156.292969 " fill-opacity="1" fill-rule="nonzero"/><path fill="rgb(0%, 76.078796%, 79.60968%)" d="M 163.347656 128.84375 C 161.492188 127.769531 159.574219 126.757812 157.65625 125.851562 C 156.113281 125.128906 154.277344 125.769531 153.542969 127.3125 C 152.820312 128.855469 153.46875 130.703125 155 131.425781 C 156.773438 132.269531 158.546875 133.199219 160.261719 134.1875 C 161.949219 135.164062 163.636719 136.238281 165.277344 137.359375 C 165.808594 137.71875 166.421875 137.902344 167.027344 137.902344 C 168.015625 137.902344 168.980469 137.429688 169.570312 136.5625 C 170.535156 135.164062 170.1875 133.234375 168.785156 132.269531 C 167.003906 131.050781 165.179688 129.894531 163.347656 128.84375 " fill-opacity="1" fill-rule="nonzero"/><g clip-path="url(#id2)"><path fill="rgb(49.409485%, 85.099792%, 34.118652%)" d="M 233.726562 256.9375 C 180.0625 225.945312 147.003906 168.660156 147.003906 106.667969 C 147.003906 106.667969 171.917969 203.132812 263.546875 235.1875 C 254.511719 243.386719 244.539062 250.699219 233.726562 256.9375 Z M 233.726562 22.515625 C 183.488281 72.039062 117.515625 89.640625 117.515625 89.640625 C 117.515625 172.707031 161.816406 249.46875 233.726562 291 C 305.640625 249.46875 349.941406 172.707031 349.941406 89.640625 C 349.941406 89.640625 283.972656 72.039062 233.726562 22.515625 " fill-opacity="1" fill-rule="nonzero"/></g></svg>